# Blender 4.5.3 LTS
# www.blender.org
mtllib pino.mtl
o Cone
v 5.458728 1.656756 -7.444935
v 6.934020 1.656756 -6.833849
v 7.545106 1.656756 -5.358557
v 6.934020 1.656756 -3.883265
v 5.458728 1.656756 -3.272179
v 5.458728 5.829512 -5.358558
v 3.983436 1.656756 -3.883265
v 3.372350 1.656756 -5.358557
v 3.983436 1.656756 -6.833849
vn -0.8387 0.4194 -0.3474
vn 0.3474 0.4194 -0.8387
vn -0.8387 0.4194 0.3474
vn -0.3474 0.4194 0.8387
vn 0.3474 0.4194 0.8387
vn 0.8387 0.4194 0.3474
vn -0.3474 0.4194 -0.8387
vn 0.8387 0.4194 -0.3474
vn -0.0000 -1.0000 -0.0000
s 0
usemtl Material.005
f 8//1 6//1 9//1
f 1//2 6//2 2//2
f 7//3 6//3 8//3
f 5//4 6//4 7//4
f 4//5 6//5 5//5
f 3//6 6//6 4//6
f 9//7 6//7 1//7
f 2//8 6//8 3//8
f 4//9 7//9 9//9
f 9//9 1//9 2//9
f 2//9 3//9 4//9
f 4//9 5//9 7//9
f 7//9 8//9 9//9
f 9//9 2//9 4//9
o Cone.001
v 5.458728 3.547926 -6.884529
v 6.537752 3.547926 -6.437582
v 6.984699 3.547926 -5.358557
v 6.537752 3.547926 -4.279533
v 5.458728 3.547926 -3.832586
v 5.458728 6.599867 -5.358558
v 4.379704 3.547926 -4.279533
v 3.932757 3.547926 -5.358557
v 4.379704 3.547926 -6.437582
vn -0.8387 0.4194 -0.3474
vn 0.3474 0.4194 -0.8387
vn -0.8387 0.4194 0.3474
vn -0.3474 0.4194 0.8387
vn 0.3474 0.4194 0.8387
vn 0.8387 0.4194 0.3474
vn -0.3474 0.4194 -0.8387
vn 0.8387 0.4194 -0.3474
vn -0.0000 -1.0000 -0.0000
s 0
usemtl Material.005
f 17//10 15//10 18//10
f 10//11 15//11 11//11
f 16//12 15//12 17//12
f 14//13 15//13 16//13
f 13//14 15//14 14//14
f 12//15 15//15 13//15
f 18//16 15//16 10//16
f 11//17 15//17 12//17
f 13//18 16//18 18//18
f 18//18 10//18 11//18
f 11//18 12//18 13//18
f 13//18 14//18 16//18
f 16//18 17//18 18//18
f 18//18 11//18 13//18
o Cone.002
v 5.458728 5.327727 -6.328015
v 6.144238 5.327727 -6.044067
v 6.428186 5.327727 -5.358558
v 6.144238 5.327727 -4.673048
v 5.458728 5.327727 -4.389100
v 5.458728 7.266643 -5.358558
v 4.773218 5.327727 -4.673048
v 4.489270 5.327727 -5.358558
v 4.773218 5.327727 -6.044067
vn -0.8387 0.4194 -0.3474
vn 0.3474 0.4194 -0.8387
vn -0.8387 0.4194 0.3474
vn -0.3474 0.4194 0.8387
vn 0.3474 0.4194 0.8387
vn 0.8387 0.4194 0.3474
vn -0.3474 0.4194 -0.8387
vn 0.8387 0.4194 -0.3474
vn -0.0000 -1.0000 -0.0000
s 0
usemtl Material.005
f 26//19 24//19 27//19
f 19//20 24//20 20//20
f 25//21 24//21 26//21
f 23//22 24//22 25//22
f 22//23 24//23 23//23
f 21//24 24//24 22//24
f 27//25 24//25 19//25
f 20//26 24//26 21//26
f 22//27 25//27 27//27
f 27//27 19//27 20//27
f 20//27 21//27 22//27
f 22//27 23//27 25//27
f 25//27 26//27 27//27
f 27//27 20//27 22//27
o Cylinder
v 5.458728 0.000553 -5.988947
v 5.458728 2.000553 -5.988947
v 5.904481 0.000553 -5.804310
v 5.904481 2.000553 -5.804310
v 6.089118 0.000553 -5.358557
v 6.089118 2.000553 -5.358557
v 5.904481 0.000553 -4.912804
v 5.904481 2.000553 -4.912804
v 5.458728 0.000553 -4.728167
v 5.458728 2.000553 -4.728168
v 5.012975 0.000553 -4.912804
v 5.012975 2.000553 -4.912804
v 4.828338 0.000553 -5.358557
v 4.828338 2.000553 -5.358557
v 5.012975 0.000553 -5.804310
v 5.012975 2.000553 -5.804310
vn 0.3827 -0.0000 -0.9239
vn 0.9239 -0.0000 -0.3827
vn 0.9239 -0.0000 0.3827
vn 0.3827 -0.0000 0.9239
vn -0.3827 -0.0000 0.9239
vn -0.9239 -0.0000 0.3827
vn -0.0000 1.0000 -0.0000
vn -0.3827 -0.0000 -0.9239
vn -0.9239 -0.0000 -0.3827
vn -0.0000 -1.0000 -0.0000
s 0
usemtl Material.006
f 29//28 30//28 28//28
f 31//29 32//29 30//29
f 33//30 34//30 32//30
f 35//31 36//31 34//31
f 37//32 38//32 36//32
f 39//33 40//33 38//33
f 41//34 37//34 33//34
f 43//35 28//35 42//35
f 41//36 42//36 40//36
f 34//37 38//37 42//37
f 29//28 31//28 30//28
f 31//29 33//29 32//29
f 33//30 35//30 34//30
f 35//31 37//31 36//31
f 37//32 39//32 38//32
f 39//33 41//33 40//33
f 33//34 31//34 29//34
f 29//34 43//34 41//34
f 41//34 39//34 37//34
f 37//34 35//34 33//34
f 33//34 29//34 41//34
f 43//35 29//35 28//35
f 41//36 43//36 42//36
f 42//37 28//37 30//37
f 30//37 32//37 34//37
f 34//37 36//37 38//37
f 38//37 40//37 42//37
f 42//37 30//37 34//37
